<?xml version="1.0" encoding="utf-8"?>
<!-- Generator: Adobe Illustrator 23.0.4, SVG Export Plug-In . SVG Version: 6.00 Build 0)  -->
<svg version="1.1" xmlns="http://www.w3.org/2000/svg" xmlns:xlink="http://www.w3.org/1999/xlink" x="0px" y="0px"
	 viewBox="0 0 141.36 176.44" style="enable-background:new 0 0 141.36 176.44;" xml:space="preserve">
<style type="text/css">
	.st0{fill:#006BB6;}
	.st1{fill:#FFFFFF;}
	.st2{fill:#FFFFFF;stroke:#006BB6;stroke-width:3;}
</style>
<g id="Layer_1">
	<g>
		<path class="st0" d="M141.36,161.46c0,8.27-5.37,14.98-12,14.98H12c-6.63,0-12-6.71-12-14.98V14.98C0,6.71,5.37,0,12,0h117.36
			c6.63,0,12,6.71,12,14.98V161.46z"/>
		<g>
			<path class="st1" d="M88.16,112.3c-1.37,11.33-11.04,20.15-22.74,20.15c-12.64,0-22.92-10.28-22.92-22.92
				c0-7.1,3.25-13.46,8.33-17.67v-9.59C41.12,87.5,34.5,97.76,34.5,109.53c0,17.05,13.87,30.92,30.92,30.92
				c12.93,0,24.03-7.98,28.64-19.28L88.16,112.3z"/>
			<path class="st1" d="M117.1,118.01l-6.38,4.4l-16.4-27.46l-31.48,0.18v-6.52H79.5v-7H62.83V65.43c3.89-1.48,6.67-5.24,6.67-9.65
				c0-5.71-4.63-10.33-10.33-10.33c-5.71,0-10.33,4.63-10.33,10.33c0,4.54,2.93,8.39,7,9.77v36.39l34.6,0.04l17.93,30.04l12.54-8.14
				L117.1,118.01z"/>
		</g>
	</g>
	<g id="Layer_3">
		<circle class="st2" cx="59.1" cy="55.71" r="10.26"/>
	</g>
	<g>
		<path class="st1" d="M24.78,153.96h3.34v13.34h1.66c0.47,0,0.86-0.17,1.19-0.5c0.33-0.33,0.49-0.73,0.49-1.18v-11.66h3.32v13.34
			h1.68c0.45,0,0.84-0.17,1.17-0.5c0.33-0.33,0.49-0.73,0.49-1.18v-11.66h3.34v9.3c0,1.56-0.56,2.9-1.67,4.02s-2.46,1.68-4.03,1.68
			h-4.3v-0.52c-0.64,0.35-1.43,0.52-2.36,0.52h-4.32V153.96z"/>
		<path class="st1" d="M44.78,168.96v-15h8.34v1.66h-5v5h3.34v1.68h-3.34v5h5v1.66H44.78z"/>
		<path class="st1" d="M56.44,168.96v-15h8.34v1.66h-5v5h3.34v1.68h-3.34v5h5v1.66H56.44z"/>
		<path class="st1" d="M68.1,168.96v-15h3.34v13.34h5v1.66H68.1z"/>
		<path class="st1" d="M81.44,168.96v-15h3.32v15H81.44z"/>
		<path class="st1" d="M89.76,163.96v-1.66h8.34v1.66H89.76z"/>
		<path class="st1" d="M101.42,168.96v-15h8.34v1.66h-5v5h3.34v1.68h-3.34v6.66H101.42z"/>
		<path class="st1" d="M114.76,168.96v-15h3.32v15H114.76z"/>
	</g>
</g>
<g id="Layer_2">
	<g>
		<path class="st1" d="M25.25,28.45c-0.83,0-1.66-0.27-2.37-0.82c-1.67-1.31-1.96-3.72-0.65-5.4c0.82-1.05,4.48-4.9,10.3-8.72
			c7.51-4.92,15.71-7.81,23.72-8.35c13.73-0.93,26.94,4.69,39.28,16.69c1.52,1.48,1.55,3.91,0.07,5.43
			c-1.48,1.52-3.91,1.55-5.43,0.07C79.54,17.02,68.39,12.13,57.02,12.82c-8.47,0.51-15.59,4.09-20.08,7
			c-4.98,3.23-8.16,6.53-8.68,7.17C27.51,27.95,26.39,28.45,25.25,28.45z M37.04,36.75c0.88-1.01,8.95-9.91,20.56-10.44
			c7.91-0.36,15.89,3.24,23.71,10.7c1.54,1.46,3.97,1.41,5.43-0.13c1.46-1.53,1.41-3.97-0.13-5.43
			c-9.4-8.97-19.28-13.28-29.37-12.82c-14.49,0.67-24.2,11.01-26,13.07c-1.39,1.6-1.23,4.03,0.37,5.42
			c0.73,0.63,1.63,0.94,2.52,0.94C35.21,38.07,36.28,37.62,37.04,36.75z M46.16,46.56c0.74-1.24,5.24-5.83,11.21-6.47
			c5.06-0.54,10.12,1.85,15.05,7.12c1.45,1.55,3.88,1.63,5.43,0.18c1.55-1.45,1.63-3.88,0.18-5.43
			c-8.31-8.88-16.27-10.07-21.48-9.51c-8.81,0.95-15.25,7.26-16.98,10.17c-1.09,1.82-0.49,4.18,1.33,5.27
			c0.62,0.37,1.3,0.54,1.96,0.54C44.17,48.43,45.44,47.76,46.16,46.56z M59.15,47.58c-4.07,0-7.37,3.3-7.37,7.37s3.3,7.37,7.37,7.37
			c4.07,0,7.37-3.3,7.37-7.37S63.22,47.58,59.15,47.58z"/>
	</g>
</g>
</svg>
